HIERARCHY
ROOT Hips
{
 OFFSET 0.000000 0.000000 0.000000
 CHANNELS 6 Xposition Yposition Zposition Yrotation Xrotation Zrotation
 JOINT Chest
 {
  OFFSET 0.000000 9.585900 0.002600
  CHANNELS 3 Yrotation Xrotation Zrotation
  JOINT Chest2
  {
   OFFSET 0.000000 9.601200 -0.005300
   CHANNELS 3 Yrotation Xrotation Zrotation
   JOINT Chest3
   {
    OFFSET 0.000000 9.561800 0.000000
    CHANNELS 3 Yrotation Xrotation Zrotation
    JOINT Chest4
    {
     OFFSET 0.000000 9.552100 0.000000
     CHANNELS 3 Yrotation Xrotation Zrotation
     JOINT Neck
     {
      OFFSET 0.000000 14.453000 0.000000
      CHANNELS 3 Yrotation Xrotation Zrotation
      JOINT Head
      {
       OFFSET 0.000000 8.936500 -0.011300
       CHANNELS 3 Yrotation Xrotation Zrotation
       End Site
       {
        OFFSET 0.000000 17.073600 -0.006000
       }
      }
     }
     JOINT RightCollar
     {
      OFFSET -2.921100 9.558500 0.000000
      CHANNELS 3 Yrotation Xrotation Zrotation
      JOINT RightShoulder
      {
       OFFSET -13.519700 0.000000 0.000000
       CHANNELS 3 Yrotation Xrotation Zrotation
       JOINT RightElbow
       {
        OFFSET 0.000000 -29.696600 0.000000
        CHANNELS 3 Yrotation Xrotation Zrotation
        JOINT RightWrist
        {
         OFFSET 0.000000 -24.004700 0.000000
         CHANNELS 3 Yrotation Xrotation Zrotation
         End Site
         {
          OFFSET 0.000000 -17.728500 0.000000
         }
        }
       }
      }
     }
     JOINT LeftCollar
     {
      OFFSET 2.921100 9.558500 0.000000
      CHANNELS 3 Yrotation Xrotation Zrotation
      JOINT LeftShoulder
      {
       OFFSET 13.519700 0.000000 0.000000
       CHANNELS 3 Yrotation Xrotation Zrotation
       JOINT LeftElbow
       {
        OFFSET 0.000000 -29.696600 0.000000
        CHANNELS 3 Yrotation Xrotation Zrotation
        JOINT LeftWrist
        {
         OFFSET 0.000000 -24.004700 0.000000
         CHANNELS 3 Yrotation Xrotation Zrotation
         End Site
         {
          OFFSET 0.000000 -17.728500 0.000000
         }
        }
       }
      }
     }
    }
   }
  }
 }
 JOINT RightHip
 {
  OFFSET -7.771700 -0.012900 -0.001300
  CHANNELS 3 Yrotation Xrotation Zrotation
  JOINT RightKnee
  {
   OFFSET 0.000000 -40.869800 0.001200
   CHANNELS 3 Yrotation Xrotation Zrotation
   JOINT RightAnkle
   {
    OFFSET 0.000000 -39.717900 0.002100
    CHANNELS 3 Yrotation Xrotation Zrotation
    JOINT RightToe
    {
     OFFSET 0.000000 -4.965400 11.033500
     CHANNELS 3 Yrotation Xrotation Zrotation
     End Site
     {
      OFFSET 0.000000 -1.423100 5.872300
     }
    }
   }
  }
 }
 JOINT LeftHip
 {
  OFFSET 7.771700 -0.012900 -0.001300
  CHANNELS 3 Yrotation Xrotation Zrotation
  JOINT LeftKnee
  {
   OFFSET 0.000000 -40.869800 0.001200
   CHANNELS 3 Yrotation Xrotation Zrotation
   JOINT LeftAnkle
   {
    OFFSET 0.000000 -39.717900 0.002100
    CHANNELS 3 Yrotation Xrotation Zrotation
    JOINT LeftToe
    {
     OFFSET 0.000000 -4.965400 11.033500
     CHANNELS 3 Yrotation Xrotation Zrotation
     End Site
     {
      OFFSET 0.000000 -1.423100 5.872300
     }
    }
   }
  }
 }
}
MOTION
Frames: 8
Frame Time: 0.008333
0.000000 85.388000 0.000000 0.000000 -5.767877 0.000000 0.000000 11.653817 0.000000 0.000000 -5.885947 0.000000 0.000000 -0.000000 0.000000 0.000000 -0.000000 0.000000 0.000000 12.528835 0.000000 0.000000 0.711642 0.000000 0.000000 -0.000000 0.000000 0.000000 0.000000 -90.000000 0.000000 -2.309062 0.000000 0.000000 2.309062 0.000000 0.000000 -0.000000 0.000000 0.000000 -0.000000 90.000000 0.000000 -2.309062 0.000000 0.000000 2.309062 0.000000 0.000000 8.520406 0.000000 0.000000 1.905762 0.000000 -0.000000 -4.658285 0.000000 0.000000 -0.000000 0.000000 0.000000 8.520406 0.000000 0.000000 1.905762 0.000000 -0.000000 -4.658285 0.000000 0.000000 -0.000000 0.000000
14.352953 50.027408 52.285405 171.570308 -33.313162 -6.157485 7.790644 24.182366 9.436126 0.981481 4.070860 1.142725 1.596868 6.521804 1.845959 5.836468 20.043121 6.536536 -2.900277 17.635766 -0.253081 -5.264406 -3.075851 0.529351 -1.506782 -4.462507 -5.783406 15.818268 -13.988362 -7.346148 174.235471 -45.603952 -174.734270 -4.078802 -13.533899 7.352660 -17.941539 -1.127249 0.445136 -5.374160 -30.670703 11.855826 -121.791015 -28.178352 140.907322 14.695061 -40.970978 27.518674 0.792145 -47.713754 11.178460 -126.296989 86.831108 -114.742935 -4.793549 -12.011562 -3.570225 -0.240878 0.665494 -0.125823 -6.859609 -51.339428 16.884265 -150.366785 80.032533 -158.002128 0.404244 -16.238247 8.484920 -0.461549 -1.002777 -0.185571
14.350707 50.031852 52.294515 171.544192 -33.287426 -6.142115 7.805974 24.183958 9.423738 0.982063 4.107008 1.134260 1.607297 6.496250 1.851435 5.846277 20.044231 6.531347 -2.950915 17.564765 -0.275441 -5.340908 -3.191132 0.511991 -1.527387 -4.536416 -5.810279 15.886086 -14.059232 -7.455892 173.745484 -45.113752 -174.301753 -4.026779 -13.829360 7.351760 -17.822825 -1.236351 0.461131 -5.228248 -30.435318 11.953802 -122.163631 -28.538776 141.059045 14.829419 -41.072967 27.363628 0.812770 -47.743020 11.171272 -126.123084 86.847465 -114.588775 -4.741998 -11.979631 -3.567846 -0.235544 0.670834 -0.118236 -6.777947 -51.359411 16.856634 -150.326026 80.056290 -157.937961 0.365815 -16.255398 8.487391 -0.448976 -0.969815 -0.170018
14.346620 50.037864 52.303877 171.531162 -33.264378 -6.123322 7.800891 24.188423 9.398334 0.983417 4.107884 1.132069 1.615982 6.497888 1.847641 5.846217 20.077237 6.505345 -2.982841 17.469880 -0.270691 -5.411689 -3.311534 0.501223 -1.541897 -4.643512 -5.817591 15.927669 -14.112509 -7.540663 173.269123 -44.651000 -173.885037 -3.990167 -14.119880 7.347349 -17.692443 -1.357153 0.500588 -5.069239 -30.204084 12.038051 -122.596528 -28.957053 141.217133 15.020473 -41.224343 27.106705 0.841970 -47.769920 11.159484 -125.787072 86.856423 -114.261513 -4.797128 -11.952048 -3.539270 -0.240297 0.671296 -0.121202 -6.729888 -51.377200 16.830441 -150.344169 80.083165 -157.951967 0.337649 -16.245694 8.485645 -0.448930 -0.962680 -0.159857
14.342569 50.044512 52.314876 171.511281 -33.237058 -6.101891 7.797127 24.188449 9.372889 0.984284 4.108617 1.129814 1.606938 6.526708 1.833925 5.862292 20.052197 6.500763 -3.019377 17.400056 -0.281795 -5.477203 -3.440410 0.495791 -1.559758 -4.727341 -5.852019 15.954865 -14.155467 -7.598977 172.810391 -44.225761 -173.497562 -3.964258 -14.392777 7.339987 -17.560861 -1.455718 0.508714 -4.911670 -29.974166 12.112659 -123.047760 -29.412524 141.366410 15.256084 -41.431005 26.751861 0.889559 -47.804338 11.166548 -125.112085 86.847018 -113.584320 -4.971773 -11.936653 -3.484001 -0.263169 0.676834 -0.130364 -6.695645 -51.400688 16.814574 -150.375223 80.107879 -157.984964 0.319586 -16.225317 8.477963 -0.456414 -0.966238 -0.152155
14.337670 50.051663 52.326427 171.497915 -33.208071 -6.078055 7.785401 24.186474 9.342842 0.985057 4.108994 1.127773 1.608127 6.527328 1.830778 5.864966 20.054202 6.491121 -3.053904 17.327214 -0.289699 -5.540121 -3.574969 0.495724 -1.571250 -4.788371 -5.879299 15.967267 -14.206148 -7.658936 172.361249 -43.846785 -173.139147 -3.942470 -14.639793 7.330364 -17.432298 -1.557723 0.511708 -4.767954 -29.738303 12.180944 -123.468340 -29.871347 141.491079 15.502249 -41.689172 26.324768 0.921411 -47.835301 11.147568 -124.781072 86.860234 -113.263854 -5.027107 -11.913178 -3.461430 -0.310650 0.673083 -0.131971 -6.630801 -51.424355 16.772452 -150.404272 80.142368 -158.002857 0.284575 -16.217854 8.474754 -0.449927 -0.952707 -0.143517
14.333203 50.060401 52.336240 171.511483 -33.190695 -6.067495 7.758231 24.193516 9.316608 0.986182 4.108492 1.126154 1.608438 6.524324 1.829104 5.868909 20.050029 6.487718 -3.087528 17.260635 -0.298243 -5.602932 -3.708533 0.504377 -1.581238 -4.823434 -5.901612 15.973577 -14.226412 -7.675908 171.875463 -43.486702 -172.747855 -3.910327 -14.852230 7.309926 -17.316208 -1.658015 0.504484 -4.638342 -29.484481 12.244954 -123.812779 -30.285516 141.581058 15.713016 -41.974883 25.879525 0.934684 -47.847229 11.120283 -124.470348 86.870078 -112.961365 -5.047857 -11.892363 -3.452548 -0.228558 0.676829 -0.122840 -6.577707 -51.433171 16.726195 -150.408538 80.177811 -157.995527 0.240257 -16.211327 8.478498 -0.441858 -0.935834 -0.150627
14.332250 50.069858 52.345854 171.504144 -33.179873 -6.062520 7.765958 24.196129 9.315247 0.987731 4.105845 1.124813 1.604075 6.517480 1.828787 5.869370 20.054946 6.483546 -3.108822 17.185894 -0.301660 -5.667390 -3.834003 0.524631 -1.589855 -4.874243 -5.924752 15.974181 -14.227386 -7.683467 171.432402 -43.194558 -172.405365 -3.859666 -15.013581 7.283220 -17.213653 -1.768256 0.497185 -4.511241 -29.201534 12.301000 -124.039737 -30.609368 141.627509 15.873210 -42.258784 25.461672 0.952210 -47.858309 11.126162 -124.123758 86.886397 -112.631972 -5.067842 -11.858854 -3.432208 -0.222980 0.680832 -0.113941 -6.558213 -51.437620 16.718958 -150.388284 80.197628 -157.971890 0.230544 -16.196467 8.478516 -0.442718 -0.941004 -0.159165
